<?xml version="1.0" encoding="UTF-8"?>
<svg id="Layer_1" xmlns="http://www.w3.org/2000/svg" xmlns:xlink="http://www.w3.org/1999/xlink" version="1.1" viewBox="0 0 1024 1024">
  <!-- Generator: Adobe Illustrator 30.2.1, SVG Export Plug-In . SVG Version: 2.1.1 Build 1)  -->
  <defs>
    <style>
      .st0 {
        fill: none;
      }

      .st1 {
        fill: url(#radial-gradient);
      }

      .st2 {
        fill: url(#linear-gradient);
      }

      .st3 {
        filter: url(#softBlur);
        opacity: .25;
      }

      .st4 {
        fill: #111118;
      }
    </style>
    <filter id="softBlur" x="-20%" y="-20%" width="140%" height="140%">
      <feGaussianBlur stdDeviation="48"/>
    </filter>
    <radialGradient id="radial-gradient" cx="-1135.08" cy="142.74" fx="-1135.08" fy="142.74" r="1.2" gradientTransform="translate(71877 568047) rotate(90) scale(500)" gradientUnits="userSpaceOnUse">
      <stop offset="0" stop-color="#00e5bf" stop-opacity=".38"/>
      <stop offset=".56" stop-color="#00e5bf" stop-opacity=".18"/>
      <stop offset="1" stop-color="#00e5bf" stop-opacity="0"/>
    </radialGradient>
    <linearGradient id="linear-gradient" x1="512" y1="589.31" x2="512" y2="330.7" gradientTransform="translate(0 972) scale(1 -1)" gradientUnits="userSpaceOnUse">
      <stop offset="0" stop-color="#f3f4f4"/>
      <stop offset="1" stop-color="#91a5ab"/>
    </linearGradient>
  </defs>
  <rect class="st4" width="1024" height="1024" rx="248" ry="248"/>
  <rect class="st0" x="28" y="28" width="968" height="968" rx="220" ry="220"/>
  <g class="st3">
    <ellipse class="st1" cx="512" cy="512" rx="421.49" ry="399.94"/>
  </g>
  <path class="st2" d="M355.31,641.3h0c-32.53,0-60.81-5.29-84.86-15.86-24.05-10.57-42.63-25.56-55.76-44.96-13.13-19.4-19.69-42.23-19.69-68.48h0c0-13.24,1.68-25.62,5.05-37.12,3.37-11.5,8.25-22.01,14.64-31.54s14.29-18.06,23.7-25.62,20.04-13.94,31.89-19.17,24.92-9.18,39.21-11.85,29.57-4.01,45.83-4.01h0c29.74,0,55.65,3.72,77.72,11.15s39.67,18.01,52.8,31.71,20.97,30.44,23.52,50.19h-70.75c-2.79-9.06-7.96-16.73-15.51-23s-17.02-11.09-28.4-14.46-24.51-5.05-39.38-5.05h0c-9.06,0-17.72.81-25.96,2.44s-15.74,4.01-22.48,7.14-12.72,6.97-17.95,11.5-9.64,9.76-13.24,15.68c-3.6,5.92-6.39,12.37-8.36,19.34s-2.96,14.52-2.96,22.65h0c0,16.26,3.72,30.26,11.15,42,7.43,11.73,17.95,20.79,31.54,27.18s29.68,9.58,48.27,9.58h0c14.87,0,28-1.68,39.38-5.05s20.79-8.19,28.23-14.46,12.55-13.94,15.33-23h71.1c-2.56,19.75-10.4,36.54-23.52,50.36-13.13,13.82-30.67,24.4-52.63,31.71s-47.92,10.98-77.89,10.98l-.02.02h0ZM741.52,636.42h-187.85v-248.84h187.85c24.16,0,43.04,5.4,56.63,16.21s20.39,25.73,20.39,44.78h0c0,12.31-2.9,22.94-8.71,31.89s-14.11,15.8-24.92,20.56-23.99,7.49-39.56,8.19h0l6.27-2.09c15.8.23,29.51,2.79,41.12,7.67s20.56,11.91,26.84,21.08,9.41,20.04,9.41,32.59h0c0,14.17-3.49,26.31-10.46,36.42s-16.96,17.89-29.97,23.35c-13.01,5.46-28.69,8.19-47.05,8.19h0ZM620.24,531.87v54.37h111.52c5.58,0,10.46-1.1,14.64-3.31s7.43-5.29,9.76-9.24,3.49-8.6,3.49-13.94h0c0-5.81-1.16-10.75-3.49-14.81-2.32-4.07-5.58-7.26-9.76-9.58s-9.06-3.49-14.64-3.49h-111.52ZM620.24,437.77v48.79h105.6c5.11,0,9.58-1.05,13.42-3.14s6.8-5,8.89-8.71,3.14-8.13,3.14-13.24h0c0-7.2-2.32-12.95-6.97-17.25s-11.04-6.45-19.17-6.45h-104.91Z"/>
</svg>